<svg xmlns="http://www.w3.org/2000/svg" width="960" height="1200" viewBox="0 0 960 1200">
  <defs>
    <linearGradient id="bg" x1="0" y1="0" x2="1" y2="1">
      <stop offset="0" stop-color="#f8f5ff"/>
      <stop offset="0.5" stop-color="#ece7ff"/>
      <stop offset="1" stop-color="#fff7fb"/>
    </linearGradient>
    <linearGradient id="accent" x1="0" y1="0" x2="1" y2="1">
      <stop offset="0" stop-color="#8338ec"/>
      <stop offset="1" stop-color="#ff006e"/>
    </linearGradient>
    <filter id="shadow" x="-20%" y="-20%" width="140%" height="140%">
      <feDropShadow dx="0" dy="24" stdDeviation="28" flood-color="#211432" flood-opacity="0.18"/>
    </filter>
  </defs>
  <rect width="960" height="1200" rx="56" fill="url(#bg)"/>
  <circle cx="740" cy="180" r="190" fill="#8338ec" opacity="0.09"/>
  <circle cx="160" cy="1040" r="240" fill="#ff006e" opacity="0.08"/>
  <rect x="188" y="212" width="584" height="776" rx="44" fill="#fff" opacity="0.78" filter="url(#shadow)"/>
  <circle cx="480" cy="452" r="118" fill="#14131a" opacity="0.92"/>
  <path d="M388 628c34-54 66-78 92-78s58 24 92 78c22 35 34 78 38 129H350c4-51 16-94 38-129z" fill="#14131a" opacity="0.92"/>
  <rect x="314" y="820" width="332" height="22" rx="11" fill="#14131a" opacity="0.12"/>
  <rect x="386" y="864" width="188" height="22" rx="11" fill="#14131a" opacity="0.1"/>
  <path d="M230 260h120M230 260v120M730 260H610M730 260v120M230 940h120M230 940V820M730 940H610M730 940V820" fill="none" stroke="url(#accent)" stroke-width="16" stroke-linecap="round"/>
</svg>
